<svg width="36" height="34" viewBox="0 0 36 34" fill="none" xmlns="http://www.w3.org/2000/svg">
<path d="M24.0048 32.8265C23.3534 32.963 22.7194 32.9937 22.058 33.0431L19.9796 33.1704L15.7903 33.1633L13.0472 33.0074C11.5902 32.8913 10.2692 32.2379 9.22242 31.2214C8.77921 30.7911 8.84774 30.6718 8.8492 30.0991L8.86129 22.8058L5.7471 31.442C5.50092 32.2034 5.81029 33.2528 4.7624 33.4539L4.73413 33.4591C4.43427 33.5192 4.12888 33.4625 3.83179 33.4192L2.96517 33.285C2.3257 33.1566 1.68032 33.0005 1.09949 32.6935C0.260009 32.2499 0.471556 31.6949 0.616728 30.8756L2.4021 19.8874L3.86901 13.4848L4.39415 11.384C4.72232 10.1421 5.0496 8.90864 5.90348 7.90598C6.84337 6.80231 8.10754 6.01847 9.54196 5.78245C10.5661 5.61394 11.3456 5.56214 12.0287 4.72116C11.8848 4.2675 11.6653 3.85781 11.5662 3.38437C11.3796 2.49267 11.8771 0.262031 12.8911 0.0356249C13.2647 0.0317343 13.4638 0.200813 13.7823 0.3735C16.0779 1.6185 19.8597 1.66167 22.1599 0.404906C22.5276 0.204047 22.8947 -0.114094 23.3436 0.0903284C23.7104 0.257344 24.1594 1.23994 24.2941 1.6163L24.3761 1.84809C24.7325 2.78878 24.4385 3.84009 24.001 4.69528C24.552 5.70155 26.1111 5.65964 27.0717 5.91216C28.9708 6.41142 30.4361 7.94147 31.1254 9.74653C31.2887 10.174 31.3776 10.533 31.5148 10.9392L31.9521 12.6375C32.012 12.9431 32.0932 13.2482 32.1567 13.5551L32.7104 16.224C32.9 17.1352 33.1438 18.0331 33.3755 18.934L33.7033 20.352C33.8353 20.9954 33.9103 21.6528 34.0319 22.2973L34.8338 27.4033C34.8803 27.71 34.9086 28.0288 34.969 28.3325L35.4329 31.2094C35.4743 31.4925 35.6037 31.8388 35.4741 32.1127L35.4462 32.1749C35.087 32.9958 32.6145 33.4532 31.6433 33.4861C30.4522 33.5265 30.4963 32.8576 30.3956 32.0378C30.3577 31.7292 30.2657 31.4029 30.1626 31.1098L27.1346 22.8512C27.121 23.2595 27.1618 23.6757 27.1663 24.0851L27.1681 29.8176C27.1677 30.7099 27.2532 30.8091 26.5306 31.4622C25.806 32.1172 24.9471 32.5812 24.0048 32.8265ZM22.9186 1.20558C20.6296 2.48728 17.527 2.71252 15.0027 2.00273C14.3337 1.81463 13.7241 1.52095 13.0934 1.23862C12.7897 1.73147 12.4236 2.48578 12.5663 3.08114L12.6013 3.19284C12.6423 3.3105 12.657 3.43027 12.7034 3.54731L12.7821 3.78417C12.8259 3.90127 12.8403 4.02141 12.9021 4.1317C13.0168 4.18181 13.1457 4.19672 13.2664 4.22944L13.8297 4.39852C16.0739 5.07009 18.3724 5.27269 20.6825 4.79095C21.5089 4.61859 22.2959 4.30561 23.1169 4.12945C23.4569 2.98617 23.7432 2.61253 23.0361 1.36762L22.9186 1.20558ZM23.0262 5.26997C20.3764 6.13055 17.5735 6.42103 14.8391 5.79225L13.0616 5.30147C12.9198 5.26388 12.9576 5.27109 12.8716 5.39119C11.7975 6.89189 10.0305 6.53883 8.55857 7.19456C6.89863 7.93406 6.17038 9.17236 5.65162 10.7929C5.30099 11.8883 5.03685 13.0155 4.78842 14.1382L3.99585 17.8886C3.73902 18.854 3.46799 19.8286 3.28888 20.8118L1.53632 31.7084C2.34248 32.1358 3.60337 32.3711 4.52245 32.3809C4.5539 31.8464 4.67681 31.3178 4.8396 30.8076L7.80815 22.6927C8.18549 21.6613 8.99235 19.9435 8.83645 18.8872L8.43796 15.6381C8.41139 15.3662 8.33732 15.0424 8.3781 14.7739C8.46674 14.1896 9.28434 14.1744 9.3907 14.792L9.40912 14.8705C9.46729 15.0936 9.44517 15.3548 9.47924 15.5853C9.63065 16.6088 9.62629 17.6361 9.87191 18.6528C9.96688 19.0458 9.91621 19.4827 9.91584 19.8847L9.91462 29.9917C9.9074 30.4215 9.81942 30.3691 10.1781 30.6536C10.8673 31.2001 11.5646 31.7046 12.4629 31.8357C12.9012 31.9305 13.6032 31.9742 14.0794 31.9988L15.8152 32.0771L20.0325 32.0831L22.3987 31.9338C23.6745 31.8459 24.6982 31.604 25.7 30.753C25.8981 30.5846 26.1031 30.482 26.1033 30.1998L26.1009 19.997C26.0963 19.2221 26.1121 18.9343 26.2293 18.1706L26.5306 15.4653C26.5534 15.1861 26.5267 14.8519 26.6498 14.5949C26.858 14.1603 27.4994 14.2785 27.615 14.7156C27.6627 14.8956 27.5939 15.2153 27.574 15.3996L27.4753 16.4409C27.4497 16.7704 27.455 17.1013 27.4132 17.4302L27.1559 19.0552C27.092 19.5016 27.2577 20.0727 27.4231 20.4926L30.2676 28.3971C30.2788 28.4315 30.292 28.4607 30.3068 28.4933L30.4719 28.945C30.4849 28.9897 30.5019 29.0278 30.5195 29.0707L30.8476 29.9848C31.2055 30.9279 31.3612 31.4349 31.5034 32.4082C32.4973 32.2978 33.6045 32.1781 34.4955 31.691L32.8005 21.2887L30.7206 12.0485C30.0992 9.59573 29.2574 7.43184 26.4255 6.87642L25.5466 6.7282C24.5641 6.5258 23.6316 6.15248 23.0714 5.26856L23.0262 5.26997Z" fill="black"/>
</svg>
